# xmcd
#
# Track frame offsets: 
#        150
#        11298
#        33431
#        45297
#        60366
#        70957
#        90311
#        98195
#        113029
#        128559
#
# Disc length: 1900 seconds
#
# Revision: 0
# Processed by: cddbd v1.4PL0 Copyright (c) Steve Scherf et al.
# Submitted via: ExactAudioCopy v0.90b4
#
DISCID=6b076a0a
DTITLE=Jenny Whiteley - Jenny Whiteley
DYEAR=2000
DGENRE=
TTITLE0=Dance Till Dawn
TTITLE1=Lived It Up
TTITLE2=Gloria
TTITLE3=Baby, I
TTITLE4=Lonnie
TTITLE5=Train Goin' West
TTITLE6=Someone On My Mind
TTITLE7=Breaking Down
TTITLE8=Soda Machine
TTITLE9='75
EXTD=
EXTT0=
EXTT1=
EXTT2=
EXTT3=
EXTT4=
EXTT5=
EXTT6=
EXTT7=
EXTT8=
EXTT9=
PLAYORDER=
